<svg xmlns="http://www.w3.org/2000/svg" width="174" height="217" viewBox="0 0 174 217">
  <defs>
    <style>
      .cls-1 {
        fill: #008e42;
      }

      .cls-1, .cls-2, .cls-3, .cls-4 {
        fill-rule: evenodd;
      }

      .cls-2 {
        fill: #305cff;
      }

      .cls-3 {
        fill: #fff;
      }

      .cls-4 {
        fill: #ffd840;
        stroke: #433d28;
        stroke-linejoin: bevel;
        stroke-width: 1px;
      }
    </style>
  </defs>
  <path id="Заливка_цветом_2_копия_2" data-name="Заливка цветом 2 копия 2" class="cls-1" d="M172,2s-0.723,185.224,0,179c0,0,.667,21-22,21H104c-13,0-17,12-17,12s-4-12-17-12H24c-10.632,0-16.126-4.905-18.965-9.973Z"/>
  <path id="Заливка_цветом_2" data-name="Заливка цветом 2" class="cls-2" d="M2,2H172L5.107,192.153A25.075,25.075,0,0,1,2,181V2Z"/>
  <path id="Заливка_цветом_3" data-name="Заливка цветом 3" class="cls-3" d="M2,39c6.645-.929,12.581-6.05,21-4,4.823,1.175,10.314,4.782,15,6,9.184,2.388,16.817-4.381,23-6,9.789-2.563,17.527,4.318,24,6,9.324,2.423,16.586-4.45,23-6,7.889-1.907,14.3,2.677,20,4v4c-3.811,2.533-5.607,5.941-11,7-9.827-6.087-20.173,7.3-31,5-5.142-1.09-11.177-4.741-16-6-10.007-2.611-17.929,4.466-25,6-8.213,1.781-16.2-4.487-22-6-8.858-2.312-13.635,2.951-20.889,3.892C2,39.037,2,53,2,39Z"/>
  <path id="Заливка_цветом_3_копия" data-name="Заливка цветом 3 копия" class="cls-3" d="M2,94c6.645-.929,12.581-6.05,21-4,4.823,1.175,10.314,4.782,15,6,9.184,2.388,16.817-4.381,23-6,4.807-1.259,9.12-.24,13.031,1.323-6.338,5.294-11.779,10.354-15.3,13.276-5.049,1.632-9.542,4.492-13.735,5.4-8.213,1.781-16.2-4.487-22-6-8.858-2.312-13.635,2.951-20.889,3.892C2,94.037,2,108,2,94Z"/>
  <path id="Заливка_цветом_3_копия_2" data-name="Заливка цветом 3 копия 2" class="cls-3" d="M2,149c6.645-.929,12.581-6.05,21-4,4.823,1.175,10.314,4.782,15,6a15.71,15.71,0,0,0,2.221.41c-2.231,3.349-5.555,6.787-9.121,10.966A59.565,59.565,0,0,0,23,159c-8.858-2.312-13.635,2.951-20.889,3.892C2,149.037,2,163,2,149Z"/>
  <path id="Фигура_2" data-name="Фигура 2" class="cls-3" d="M87,197H98l19.352-23.834,10.648-.04L133,181l5.062,0.106-3.124-8.007,5-.019L144,181l5.25,0.064-3.375-8.006,5.063-.02L155,181l4.625,0.02-2.688-8.005L161,173v-6l-6.062-.02,6.937-13L158,154l-9.125,12.96-3.812-.013L152,154h-4l-8.937,12.927L134,166.91,141,154h-4l-9.062,12.89-5.475-.019,16.847-20.748L161,146v-5l-17.6.084,4.085-5.032L161,136v-6l-8.615.02,2.437-3L161,127v-6l-1.324.041L161.333,119,156,115l-3.679,4.372L150,115l-4,2,2.545,6.86-2.85,3.386L141,118l-4,3,5.212,10.386-3.972,4.72L131,122l-5,3,8.041,16.1-12.39,14.723-7.8-14.217L122,131l-4-4-7.389,8.695-1.9-3.459L117,121l-4-4-7.61,9.179L102,120l-4,4,3.088,5.891L87,130v6l17.309,0.035,2.037,3.885L87,140v6l22.605,0.136,1.985,3.787L87,150v6l27.8,0.041,2.56,4.882-14.991,17.816L95,162H88L96.513,185.7Z"/>
  <path id="Фигура_1" data-name="Фигура 1" class="cls-4" d="M4,192L120,92H93L172,2,51,111H75Z"/>
</svg>
