<svg xmlns="http://www.w3.org/2000/svg" width="1000" height="600" viewBox="0 0 1000 600">
  <defs>
    <style>
      .cls-1 {
        fill: #d3d4d4;
        stroke: #9a9a9b;
        stroke-width: 2px;
        fill-rule: evenodd;
      }

      .cls-2 {
        fill: #00d2aa;
      }

      .cls-3, .cls-4, .cls-5 {
        font-size: 14px;
        font-family: Inter;
      }

      .cls-3, .cls-4 {
        font-weight: 500;
      }

      .cls-4 {
        text-anchor: end;
      }

      .cls-5 {
        font-weight: 700;
      }
    </style>
  </defs>
  <path id="figure" class="cls-1" d="M33,301l2,9-4,5,8,8,9,4,7,2-5-10,1-9,7,2,9,4,8,4,7,5,6,9-14-5-1,6-8-1-10,1-3,6,4,9-1,16,8,9,5,10,4,19,10,2,2,8-2,4,3,15v11l15-1V426l9-7,2-14,12-3,20,2,2-11V377l-2-12,9-3,14-7,1,9,8-6,27,2,4,10,7,7-3,12,8,5,14,4,9,12,13,7,7-4V400l13-7,6-10,16,6,28,6,15-2,11,9-4,14,12,7,1,8,28-1,4,17,5,31,10,2,14,3,14,18,12,9,16,2,14-6,16-7,14,4,13,10,15,3,7-6-4-13,9-9,13,3,14,7,2,12,11,2,16-5,18,4,12,7,16-2,13-8,11-11,14,2,14,3,7-10,3-20,4-11-6-8,9-11,15-3,17,2,14,16,13,15,20-1,13,11,14-2,10-16,9,6-1,13,3,21-14,11,3,13,4,13-6,6,11-2,4-13,10,3,9-10,5-19,3-22,2-16-1-20V433l-9-15-6-21-10-17-17-6-6,8-4,9-12-8-11,4,4-16,5-13V341l6-30,16-14,15-11,8-12,11,5,13-21-10-4-3-25,9-18,12,10V197l-5-11,6-5,10,20-1,15,7,33-2,10,7,22,22,23,32,21,1-13-10-16,5-9-9-10,4-14-12-12,4-7-17-12h-8l-8-13-6-7,7-16,10-22,9,1-4-15-3-39,7-10-5-6-18-2-12,7,7-11-2-10-11-7,10-2,4-11,7,1,14-11L914,48l-5-16L890,46l6,8-14-2L858,68,838,81l-17,20,13,9-12,6-5-5-1,11-13,13v8l-21-6-17,15-25,3-34,16,5,14-19,13-9-2,3,19-20-13-4-13-19-2,1,14H619l-25-4-20,15,25-33-3-11-19-3-13-13-13,11-3,10-15-1-20,6-15,14-18,4,1,13,1,24-7-21-10-5-4,15-7-10,5-18-14,18v14l-9,13,11,6,7,12-10,9V250h-8l-8,14-14,8-14-16,17,6,14-15V234l8-20,8-17-9-8-20,13-10,18,4,16-5,5-13-26-12-15-5,16-12-8-17-3,3-9-21-3-17,3-6-10,11-7-5-14-16,17H284l-13-2-7,12-9-12-2-8-8,13-3-10,12-19,5-19,8,25,13,11,14-8V149l-5-24-4-18H266l-6,14-10,2-9,12-24,16-2,11H180l-2,16-10-10-15,3-12,7-13,15,6,15-10,11-5,17-14,3,5,15-1,8-6,9v10l7,13-2,9-11,1-15,3-9-13-13-5-21-4,5,14,3,6ZM81,147l2,9,7,12,7-3-2-13-9-5H81Zm284,30,14,12-1-15,11-12,20-12,29-2h14l5-6-3-7H432l-30,1-12,12-23,11Zm-32,8,9-1-1-8-9,2Zm216-34,17-8-9-12-8,8-1-16-7-4-2-12-8,6-5,13,10-5-5,8,13,9,5,4v9Zm139,2,14-16-1-10-15,6-10,8,3,9Zm13,12,11-3,1-8H703Zm5-40,3,6h10l2-5-2-5ZM831,63l3-8-3-10-8,11Zm18,298,5,11-1,7,10,15,7,5,16,22,6,15,13,17,2-11,9,4-5-7-12-5-9-19,13-4-20-14-14-14-9-13Z"/>
  <circle id="el1" class="cls-2" cx="91" cy="313" r="5"/>
  <circle id="el2" class="cls-2" cx="94" cy="333" r="5"/>
  <circle id="el3" class="cls-2" cx="110" cy="310" r="5"/>
  <circle id="el4" class="cls-2" cx="137" cy="350" r="5"/>
  <circle id="el5" class="cls-2" cx="155" cy="244" r="5"/>
  <circle id="el6" class="cls-2" cx="167" cy="251" r="5"/>
  <circle id="el7" class="cls-2" cx="177" cy="258" r="5"/>
  <circle id="el8" class="cls-2" cx="202" cy="278" r="5"/>
  <circle id="el9" class="cls-2" cx="179" cy="181" r="5"/>
  <circle id="el10" class="cls-2" cx="210" cy="341" r="5"/>
  <circle id="el11" class="cls-2" cx="297" cy="349" r="5"/>
  <circle id="el12" class="cls-2" cx="292" cy="369" r="5"/>
  <circle id="el13" class="cls-2" cx="329" cy="362" r="5"/>
  <circle id="el14" class="cls-2" cx="504" cy="432" r="5"/>
  <text id="Нижний_Новгород" data-name="Нижний Новгород" class="cls-3" x="205.5" y="273.5">Нижний Новгород</text>
  <text id="Воскресенск" class="cls-4" x="172.5" y="270.5"><tspan x="172.5">Воскресенск</tspan></text>
  <text id="Волоколамск" class="cls-4" x="152" y="238.5"><tspan x="152">Волоколамск</tspan></text>
  <text id="Волгоград" class="cls-3" x="141.5" y="364.5">Волгоград</text>
  <text id="Санкт-Петербург" class="cls-3" x="184" y="193.5">Санкт-Петербург</text>
  <text id="Москва" class="cls-5" x="174.5" y="245">Москва</text>
  <text id="Ростов-на-Дону" class="cls-3" x="5" y="349.5">Ростов-на-Дону</text>
  <text id="Самара" class="cls-3" x="214.5" y="337">Самара</text>
  <text id="Челябинск" class="cls-3" x="294" y="384.5">Челябинск</text>
  <text id="Екатеринбург" class="cls-3" x="292" y="340.5">Екатеринбург</text>
  <text id="Тюмень" class="cls-3" x="332" y="358.5">Тюмень</text>
  <text id="Красноярск" class="cls-3" x="507.5" y="427.5">Красноярск</text>
  <text id="Донецк" class="cls-4" x="85" y="325.5"><tspan x="85">Донецк</tspan></text>
  <text id="Луганск" class="cls-4" x="105" y="304"><tspan x="105">Луганск</tspan></text>
</svg>
