<svg xmlns="http://www.w3.org/2000/svg" xmlns:xlink="http://www.w3.org/1999/xlink" width="800" height="500" viewBox="0 0 800 500" style="background-color: #222221;">
  <defs>
    <style>
      .cls-1, .cls-3 {
        font-size: 18px;
      }

      .cls-1, .cls-6 {
        fill: #00fefa;
      }

      .cls-1 {
        text-anchor: middle;
      }

      .cls-1, .cls-3, .cls-4, .cls-5 {
        font-family: Inter;
      }

      .cls-1, .cls-3, .cls-4 {
        font-weight: 700;
      }

      .cls-2 {
        fill: none;
        stroke: #484848;
        stroke-width: 2px;
      }

      .cls-2, .cls-6 {
        fill-rule: evenodd;
      }

      .cls-3, .cls-4, .cls-5 {
        fill: #9e9d9d;
      }

      .cls-4, .cls-5 {
        font-size: 14px;
      }
    </style>
  </defs>
  
<path id="figure" data-name="figure" class="cls-2" d="M432,271l9,1,8-8,5-6V248l1-10-1-7-6-6-4-4-8-2-8-2-5,3-8,4-1,7-1,7-2,5,3,5,3,7,4,8,3,4Z M442,247l-9,4-6-5v-6l4-3,6-1,4,3Z M398,188l10-6,8-9,17-1,14,7,13,3,9,7,12,5,13,7,3,6,12,7,9,2,1,8v6l1,9-5,4-2,7-12,10,5,22-7,8,1,10-2,3 M429,237l-6-4-4-12-9-9-2-5-6-15-4-5-6-2-4-5-14-1-16-14-4-9-8-10-3-8-4-17-7-20L315,86l-2-6-2-4V68l-9-16-15-4-18,3-16-5L236,36,212,17l-4-7-4-9 M435,251l-1,11-1,9,1,14-1,19-6,16v16l4,12-6,20-1,14-6,7,2,5,2,10,3,10-4,11,3,12-2,21,5,13-3,12-4,6,2,10 M422,459l-6,10-12,15 M438,262l2,10,1,8,10,13-2,11,3,9,5,8,1,10,4,9,3,21,7,31,10,9,18,12,13,24,5,11,21,17,4,7,18,6,8,8,7,14 M483,402l3,54-4,7,2,20-10,17 M454,254l13,11,6,9,8,6,9,14,16,11,12,20,11,6,4,7,16,7,3,11,32,32,37,30,1,9,12,3,12,11,6,1,1,4,6,1,1,5,6,8,1,4,8,10,16,5,8-5,31-1,11,9,6,3,9,1,5,7,20,7 M442,242l15-4,17-4,24-3,11-1,7-4,32,1,26-11,55-8,51-28,3-9,12,1,5-6,33,1,58-7,9-1 M454,245l9-3,19,3,10-8,5-5,24,1,8-3,12,1,30-10,6,2,13-7,3-7,44-17h16l9-6,22,4,3,7h14l18,15,8,13,14,1,31,21,8,1,9,3,10,1 M684,190l6-1,4-4,26-2,12-7,2-8 M445,221l13-14,2-16,12-9-3-9,10-7,6-1,9-15,3-9,3-11,19-9,4-7,1-5,14-18,9-2,5-3-3-9,5-13,10-1,20-29,1-13,6-12,7-5,1-4 M426,240l-12-2-10-4-5,5-14-2-3-6-16-2-19-8-17-15-37-6-16-8H238l-17-9-16-5-9-6-32-4-15-8-43-2-6-4s-29.667-2.333-31-3-22-6-22-6l-31-2L0,140 M430,243l-9,3H410l-6,6h-4l-1,6-4,1-1,4 M415,248l-10,9-10,7-37,5-33,4-16,6-15,8-44-1-40-9H196l-59,35-27,10-21-3-17,4-18-4-14,5L0,330 M434,245l-10,12-9,7-23,9-14,5-27,31-4,24-5,20-24,24-7,14-12,13-3,16-20,22-19,13-21,11-10,16-12,11-3,7 M343,349l-18,13-24,3-30,1-30,16-29,18-65,26-6,9-25,12-15,12L3,500 M423,219l-5-9-6-1-18-11-17-27-21-23-15-29-9-25L302,75l-13-1-13-8-2-13-8-3 M257,48l-13-2L211,34,205,7 M398,188l-10,9-9,7-5,10-3,23-4,8,3,7,8,8,1,5-2,14,14,13,9,7,13,2,8,7,12,2,27-3,11,2,24-2,6-5"/>

  <text id="Москва" class="cls-3" x="443.5" y="248">Москва</text>
  <text id="_Подольск" data-name="° Подольск" class="cls-4" x="424.5" y="302">° Подольск</text>
  <text id="_Коломна" data-name="° Коломна" class="cls-4" x="537.5" y="357">° Коломна</text>
  <text id="_Рязань" data-name="° Рязань" class="cls-4" x="625.5" y="433">° Рязань</text>
  <text id="_Тула" data-name="° Тула" class="cls-4" x="428.5" y="501">° Тула</text>
  <text id="_Калуга" data-name="° Калуга" class="cls-4" x="303.5" y="448">° Калуга</text>
  <text id="_Серпухов" data-name="° Серпухов" class="cls-5" x="413.5" y="383">° Серпухов</text>
  <text id="_Шуя" data-name="° Шуя" class="cls-5" x="761.5" y="68">° Шуя</text>
  <text id="_Гагарин" data-name="° Гагарин" class="cls-5" x="192.5" y="276">° Гагарин</text>
  <text id="_Ржев" data-name="° Ржев" class="cls-5" x="139.5" y="160">° Ржев</text>
  <text id="_Торжок" data-name="° Торжок" class="cls-5" x="201.5" y="36">° Торжок</text>
  <text id="_Селижарово" data-name="° Селижарово" class="cls-5" x="67.5" y="60">° Селижарово</text>
  <text id="_Нелидово" data-name="° Нелидово" class="cls-5" x="3.5" y="155">° Нелидово</text>
  <text id="_Белый" data-name="° Белый" class="cls-5" x="12.5" y="220">° Белый</text>
  <text id="_Вязьма" data-name="° Вязьма" class="cls-5" x="125.5" y="327">° Вязьма</text>
  <text id="_Десногорск" data-name="° Десногорск" class="cls-5" x="23.5" y="490">° Десногорск</text>
  <text id="_Шилово" data-name="° Шилово" class="cls-5" x="733.5" y="474">° Шилово</text>
  <text id="_Сафоново" data-name="° Сафоново" class="cls-5" x="29.5" y="338">° Сафоново</text>
  <text id="_Ельня" data-name="° Ельня" class="cls-5" x="18.5" y="423">° Ельня</text>
  <text id="_Дорогобуж" data-name="° Дорогобуж" class="cls-5" x="32.5" y="367">° Дорогобуж</text>
  <text id="_Орехово-Зуево" data-name="° Орехово-Зуево" class="cls-5" x="554.5" y="242">° Орехово-Зуево</text>
  <text id="_Мытищи" data-name="° Мытищи" class="cls-4" x="442.5" y="222">° Мытищи</text>
  <text id="_Сергиев_Посад" data-name="° Сергиев Посад" class="cls-5" x="477.5" y="160">° Сергиев Посад</text>
  <text id="_Дубна" data-name="° Дубна" class="cls-5" x="393.5" y="93">° Дубна</text>
  <text id="_Тверь" data-name="° Тверь" class="cls-4" x="283.5" y="69">° Тверь</text>
  <text id="_Владимир" data-name="° Владимир" class="cls-4" x="680.5" y="185">° Владимир</text>
  <text id="Зеленоград_" data-name="Зеленоград °" class="cls-4" x="305.5" y="212">Зеленоград °</text>
  <text id="_Переславль-Залесский" data-name="° Переславль-Залесский" class="cls-4" x="544.5" y="91">° Переславль-Залесский</text>
  <text id="_Иваново" data-name="° Иваново" class="cls-4" x="726.5" y="44">° Иваново</text>
  <text id="_Суздаль" data-name="° Суздаль" class="cls-5" x="685.5" y="139">° Суздаль</text>
  <path id="elipse" data-name="elipse" class="cls-6" d="M270.5,170A12.5,12.5,0,1,1,258,182.5,12.5,12.5,0,0,1,270.5,170Zm262,133A12.5,12.5,0,1,1,520,315.5,12.5,12.5,0,0,1,532.5,303Z"/>
  <circle cx="270" cy="183" r="14" fill="none" stroke="#00fefa" stroke-width="1" opacity=".3">
      <animate attributeName="r" values="16;32;16" dur="2s" repeatCount="indefinite"></animate>
      <animate attributeName="opacity" values=".3;0;.3" dur="2s" repeatCount="indefinite"></animate>
  </circle>
  <circle cx="532" cy="316" r="14" fill="none" stroke="#00fefa" stroke-width="1" opacity=".3">
      <animate attributeName="r" values="16;32;16" dur="2s" repeatCount="indefinite"></animate>
      <animate attributeName="opacity" values=".3;0;.3" dur="2s" repeatCount="indefinite"></animate>
  </circle>
  <text id="Волоколамск" class="cls-1" x="269.5" y="163"><tspan x="269.5">Волоколамск</tspan></text>
  <text id="Воскресенск" class="cls-1" x="580.5" y="296"><tspan x="580.5">Воскресенск</tspan></text>
</svg>
