<svg xmlns="http://www.w3.org/2000/svg" version="1.1" viewBox="-5.0 -10.0 110.0 135.0">
 <path fill="#d4af37" d="m24.27 73.969v-0.83203c0-0.32031-0.26172-0.58203-0.58203-0.58203s-0.58203 0.26172-0.58203 0.58203v0.83203c-0.41016 0.21094-0.69141 0.63672-0.69141 1.1328 0 0.70313 0.57031 1.2695 1.2695 1.2695 0.70312 0 1.2695-0.57031 1.2695-1.2695 0.007813-0.49219-0.27344-0.92187-0.68359-1.1328zm65.258 3.207-0.32031-0.59766-0.52344-0.99219-17.625 9.4375 0.84766 1.5859 13.93-7.4609c0.53906-0.28906 1.2109-0.082032 1.5 0.45703 0.28906 0.53906 0.082031 1.2109-0.45703 1.5l-15.023 8.0469 2.0938 3.9062 19.836-10.621-2.0938-3.9062-2 1.0703c-0.53906 0.28906-1.2109 0.082032-1.5-0.45703-0.28906-0.53906-0.082031-1.2109 0.45703-1.5zm-69.215-58.301h10.578l-0.066406-10.574zm50.105-6.5117v42.52c0.19531 0.26563 0.36719 0.55078 0.51172 0.85938 0.007812 0.015624 0.015624 0.035156 0.027343 0.050781 0.015625 0.035156 0.046875 0.11328 0.09375 0.22266 0.007813 0.019531 0.015625 0.035156 0.019531 0.054687l2.7461 6.8711v-50.582zm-29.863 68.145h28.258l-1.1367-3.3984h-25.922c-0.28906 1.0703-0.64062 2.1211-1.0781 3.1289-0.039062 0.089844-0.078125 0.17969-0.12109 0.26953zm-15.59-50.285c-0.61328 0-1.1133-0.5-1.1133-1.1133s0.5-1.1133 1.1133-1.1133h25.672c0.61328 0 1.1133 0.5 1.1133 1.1133s-0.5 1.1133-1.1133 1.1133zm0 7.3359c-0.61328 0-1.1133-0.5-1.1133-1.1133 0-0.61328 0.5-1.1133 1.1133-1.1133h37.016c0.61328 0 1.1133 0.5 1.1133 1.1133 0 0.61328-0.5 1.1133-1.1133 1.1133zm0 7.3398c-0.61328 0-1.1133-0.5-1.1133-1.1133 0-0.61328 0.5-1.1133 1.1133-1.1133h37.016c0.61328 0 1.1133 0.5 1.1133 1.1133 0 0.61328-0.5 1.1133-1.1133 1.1133zm7.8203 5.1133-9.0977-3.4258-4.9336 1.8594v-27.344h13.25c0.61328 0 1.1133-0.5 1.1133-1.1133 0-0.035156 0-0.070312-0.003907-0.10547l-0.082031-13.145h35.16v46.535c-0.49219-0.17188-0.99609-0.25781-1.5039-0.25391-0.62109 0-1.2344 0.12891-1.832 0.38672l-0.51172 0.21875c-1.1523 0.49219-2.0156 1.3984-2.4766 2.4727-0.17188 0.39844-0.28516 0.82031-0.33984 1.25h-18.152c0.003906-0.59766 0.007812-1.1953 0.011719-1.7969l0.007812-1.5469-4.6953-1.7695h23.281c0.61328 0 1.1133-0.5 1.1133-1.1133 0-0.61328-0.5-1.1133-1.1133-1.1133zm30.953 8.2188c-0.058593-0.43359 0.003907-0.87109 0.17188-1.2656 0.24219-0.56641 0.69531-1.043 1.3008-1.3008l0.51172-0.21875c0.32812-0.14062 0.65234-0.21094 0.96484-0.21094 0.31641 0 0.63672 0.070313 0.96484 0.21094 0.3125 0.13281 0.57422 0.3125 0.78906 0.53125 0.027344 0.035157 0.058594 0.066407 0.089844 0.097657 0.125 0.14453 0.23438 0.3125 0.33203 0.49219l0.042969 0.089844c0.007812 0.019531 0.015625 0.039062 0.023438 0.054688l0.082031 0.17969 4.8594 12.156c0.14062 0.45312 0.5625 0.77734 1.0625 0.77734 0.53125 0 0.97656-0.37109 1.0859-0.87109l3.8516-12.555c0.007812-0.019532 0.011718-0.039063 0.015625-0.058594 0.29688-1.0469 0.33984-2.0469 0.21094-3.0352-0.125-0.96094-0.41406-1.8906-0.78125-2.8438l-3.2695-8.4336-0.003906-13.164c0.16016 0.17578 0.3125 0.38672 0.44922 0.64062l12.02 22.406c0.40234 0.75 0.65234 1.5078 0.75 2.2852 0.097656 0.78125 0.042969 1.582-0.16016 2.4102l-3.4336 13.863c-0.40234 1.6328-0.003907 2.6523 0.55078 3.9258l-14.508 7.7695-0.26953-0.80469c-0.015625-0.058594-0.035156-0.11719-0.058594-0.17188l-1.8242-5.4531c-0.015625-0.058594-0.035156-0.11719-0.058594-0.17188l-5.6055-16.742-0.019531-0.050781c-0.054688-0.14062-0.09375-0.28516-0.12109-0.42969-0.003906-0.039063-0.007812-0.074219-0.015625-0.10938zm-21.48 16.652h24.672l-5.125-15.309h-18.453c-0.046874 3.2031-0.14844 6.4062-0.39062 9.5977-0.14453 1.8867-0.34766 3.8164-0.70313 5.7109zm18.812-60.57h-20.867v6.8125h20.867zm-21.98-2.2266c-0.61328 0-1.1133 0.5-1.1133 1.1133v9.0391c0 0.61328 0.5 1.1133 1.1133 1.1133h23.094c0.61328 0 1.1133-0.5 1.1133-1.1133v-9.0391c0-0.61328-0.5-1.1133-1.1133-1.1133zm19.711 54.824v2.5664h-10.02v-2.5664zm-11.133-2.2266h12.246c0.61328 0 1.1133 0.5 1.1133 1.1133v4.793c0 0.61328-0.5 1.1133-1.1133 1.1133h-12.246c-0.61328 0-1.1133-0.5-1.1133-1.1133v-4.793c0-0.61328 0.5-1.1133 1.1133-1.1133zm30.082-8.9453c0.20703-0.73047 0.23438-1.4336 0.14062-2.1367-0.097656-0.75391-0.33984-1.5234-0.65234-2.3281l-1.1992-3.0938v13.129zm-68.836 12.527c-0.042968-0.61328 0.41797-1.1445 1.0312-1.1875 0.61328-0.042969 1.1445 0.41797 1.1875 1.0312l0.042969 0.55078c0.11328 1.4766 0.26172 3.0508 0.53516 4.5938 0.26562 1.5156 0.64062 2.9922 1.207 4.2891 0.46484 1.0664 1.082 2.0312 1.8047 2.9219 0.74219 0.91406 1.5898 1.75 2.4922 2.5508 0.39844 0.35156 0.81641 0.70703 1.2461 1.0586 0.41016 0.33594 0.84375 0.67578 1.293 1.0195 0.71094 0.54297 1.4609 1.0859 2.2383 1.625 0.58984 0.41016 1.1562 0.79297 1.7031 1.1523 1.0273-0.67578 2.0508-1.3789 3.0547-2.1133 1.1914-0.875 2.3438-1.7852 3.4258-2.7383 0.90625-0.80078 1.7539-1.6367 2.4922-2.5508 0.72266-0.89062 1.3398-1.8516 1.8047-2.9219 0.5625-1.2969 0.94141-2.7734 1.207-4.2891 0.26953-1.543 0.42187-3.1211 0.53516-4.5938 0.14062-1.8281 0.23047-3.6094 0.28906-5.3633 0.050782-1.5508 0.082032-3.0898 0.097656-4.6172l-12.906-4.8594-12.906 4.8594c0.011719 0.95312 0.027344 1.9102 0.050782 2.8789 0.027344 1.1875 0.066406 2.3984 0.125 3.6367 0.027344 0.61328-0.44922 1.1289-1.0625 1.1562-0.61328 0.027343-1.1289-0.44922-1.1562-1.0625-0.054688-1.2031-0.09375-2.4336-0.125-3.6914-0.027344-1.1953-0.042969-2.3984-0.054688-3.6133-0.03125-0.47656 0.24609-0.9375 0.71484-1.1133l14.02-5.2812c0.24219-0.089844 0.51953-0.097656 0.78125 0l14.02 5.2812c0.42188 0.16016 0.72266 0.57031 0.71875 1.0469-0.015624 1.8281-0.046874 3.6484-0.10547 5.4453-0.0625 1.8594-0.15234 3.6836-0.28906 5.4609-0.11719 1.5391-0.27734 3.1875-0.55859 4.8125-0.28906 1.6523-0.71094 3.2891-1.3633 4.7852-0.55469 1.2773-1.2812 2.4062-2.1172 3.4414-0.82031 1.0117-1.7539 1.9336-2.7461 2.8086-1.1523 1.0195-2.3555 1.9727-3.582 2.8711-1.2109 0.88672-2.4688 1.7422-3.7422 2.5664-0.35938 0.24219-0.84375 0.26172-1.2266 0.011719-0.83594-0.54297-1.6328-1.0742-2.3672-1.5859-0.76562-0.53125-1.5352-1.0898-2.3164-1.6836-0.44141-0.33594-0.88672-0.6875-1.3438-1.0625-0.4375-0.35547-0.875-0.73047-1.3164-1.1172-0.99219-0.875-1.9258-1.7969-2.7461-2.8086-0.83984-1.0352-1.5625-2.1641-2.1172-3.4414-0.64844-1.4961-1.0742-3.1328-1.3633-4.7852-0.28516-1.625-0.44141-3.2734-0.55859-4.8125zm16.75-0.9375v-2.8984c0-0.50781-0.20703-0.96875-0.54297-1.3047-0.33594-0.33594-0.79688-0.54297-1.3047-0.54297h-0.25c-0.50781 0-0.96875 0.20703-1.3047 0.54297-0.33594 0.33594-0.54297 0.79688-0.54297 1.3047v2.8984c0.62891-0.17188 1.293-0.26562 1.9766-0.26562 0.67969 0 1.3398 0.089844 1.9688 0.26562zm-6.1758 1.0391v-3.9375c0-1.1211 0.45703-2.1406 1.1953-2.8789 0.73828-0.73828 1.7578-1.1953 2.8789-1.1953h0.25c1.1211 0 2.1406 0.45703 2.8789 1.1953 0.73828 0.73828 1.1953 1.7578 1.1953 2.8789v3.9375c0.37109 0.25781 0.71875 0.54297 1.0352 0.86328 1.3398 1.3398 2.168 3.1914 2.168 5.2383 0 2.043-0.82812 3.8945-2.168 5.2383-1.3398 1.3398-3.1914 2.168-5.2383 2.168-2.043 0-3.8945-0.82812-5.2383-2.168-1.3398-1.3398-2.168-3.1914-2.168-5.2383 0-2.043 0.82812-3.8945 2.168-5.2383 0.32813-0.31641 0.67188-0.60547 1.043-0.86328zm7.8633 2.4375c0.9375 0.9375 1.5156 2.2305 1.5156 3.6641 0 1.4297-0.57813 2.7266-1.5156 3.6641s-2.2305 1.5156-3.6641 1.5156c-1.4297 0-2.7266-0.57813-3.6641-1.5156s-1.5156-2.2305-1.5156-3.6641c0-1.4297 0.57813-2.7266 1.5156-3.6641 0.33203-0.33203 0.71094-0.62109 1.1211-0.85156l0.007813-0.003906c0.75-0.42188 1.6133-0.66016 2.5312-0.66016 1.4375 0 2.7305 0.57813 3.668 1.5156zm-3.6602 22.457c-2.2773-1.4219-4.5508-2.9258-6.6953-4.5586-0.96094-0.73438-1.8945-1.4922-2.793-2.2852-2.293-2.0273-4.2266-4.2344-5.457-7.0664-1.3789-3.1758-1.8438-6.918-2.1055-10.348-0.34375-4.4727-0.39844-8.9727-0.41797-13.461l17.469-6.5781 17.469 6.5781c-0.019531 4.4883-0.078125 8.9883-0.41797 13.461-0.26172 3.4297-0.72656 7.1719-2.1055 10.348-1.2305 2.832-3.1641 5.0391-5.457 7.0664-2.8945 2.5586-6.1914 4.7812-9.4883 6.8438z" fill-rule="evenodd"/>
</svg>
