<svg xmlns="http://www.w3.org/2000/svg" data-name="Layer 1" viewBox="0 0 95 118.75" x="0px" y="0px"><path fill="#d4af37" d="M71.987,80.079v4.864a.3.3,0,0,1-.3.3H41.7a.3.3,0,0,1-.3-.3V80.079a.3.3,0,0,1,.3-.295H71.691A.3.3,0,0,1,71.987,80.079Zm-28.15-3.023v.124H69.552v-.124a2.735,2.735,0,0,0-2.727-2.727H46.564A2.735,2.735,0,0,0,43.837,77.056Zm27.42-14.607,3.706-6.419a.452.452,0,0,0-.165-.616L58.432,45.965a.452.452,0,0,0-.616.165L54.11,52.549a.452.452,0,0,0,.165.616l16.366,9.449A.452.452,0,0,0,71.257,62.449ZM60.206,38.916l-.81,1.4A1.232,1.232,0,0,0,59.846,42l1.559.9-.769,1.331L75.2,52.638l.768-1.331,1.559.9a1.234,1.234,0,0,0,1.68-.45l.81-1.4a1.232,1.232,0,0,0-.45-1.679L61.886,38.466A1.234,1.234,0,0,0,60.206,38.916ZM69.227,66.58l-1.559-.9.769-1.331L53.875,55.941l-.768,1.331-1.559-.9a1.234,1.234,0,0,0-1.68.45l-.81,1.4a1.232,1.232,0,0,0,.45,1.679l17.68,10.207a1.231,1.231,0,0,0,1.679-.45l.81-1.4A1.232,1.232,0,0,0,69.227,66.58Zm21.057-2.45c-2.3-1.225-8.611-2.929-13.829-5.476l-2.18,3.775c4.815,3.245,9.445,7.855,11.657,9.238C92.983,76.073,97.625,68.032,90.284,64.13Zm-36.2-48.316V27.375a2.6,2.6,0,0,0,2.6,2.6H68.253v9.157l-5.065-2.925a3.838,3.838,0,0,0-5.237,1.4l-.81,1.4a3.8,3.8,0,0,0-.4,1h-33.2A13.551,13.551,0,0,0,14.915,33.7V15.814ZM25.442,35.667a1.3,1.3,0,0,0-1.3-1.3H22.18a1.3,1.3,0,1,0,0,2.6h1.96A1.3,1.3,0,0,0,25.442,35.667Zm9.145,0a1.3,1.3,0,0,0-1.3-1.3H27.553a1.3,1.3,0,1,0,0,2.6h5.732A1.3,1.3,0,0,0,34.587,35.667Zm.366-4.634a1.3,1.3,0,0,0-1.3-1.3H22.18a1.3,1.3,0,0,0,0,2.6H33.651A1.3,1.3,0,0,0,34.953,31.033Zm21.739-3.658H68.253L56.692,15.814Zm8.081,44.35L62.133,70.2a1.3,1.3,0,0,1-.209,1.524Zm-23.54,5.331v.161a2.906,2.906,0,0,0-2.372,2.271H14.915V60.029a13.555,13.555,0,0,0,9.3-7.623h4.247a1.3,1.3,0,1,0,0-2.6H25.085a13.462,13.462,0,0,0,.309-2.289H43.322a1.3,1.3,0,0,0,0-2.6H25.267a13.392,13.392,0,0,0-.544-2.289h32.3a3.817,3.817,0,0,0,.49.762,3.062,3.062,0,0,0-1.949,1.446l-.047.081H48.377a1.3,1.3,0,1,0,0,2.6h5.634L52.689,49.8H33.519a1.3,1.3,0,1,0,0,2.6H51.47a3.061,3.061,0,0,0,.108,1.253,3.827,3.827,0,0,0-3.871,1.711H36.178a1.3,1.3,0,0,0,0,2.6H46.387a3.843,3.843,0,0,0,1.819,4.186l.493.285H36.178a1.3,1.3,0,1,0,0,2.6H53.209l7.744,4.471H36.178a1.3,1.3,0,0,0,0,2.6h8.367A5.337,5.337,0,0,0,41.233,77.056Zm-9.009-6.234a3.137,3.137,0,1,0-3.137,3.137A3.141,3.141,0,0,0,32.224,70.822Zm0-7.075a3.137,3.137,0,1,0-3.137,3.137A3.14,3.14,0,0,0,32.224,63.747Zm0-7.075a3.137,3.137,0,1,0-3.137,3.137A3.14,3.14,0,0,0,32.224,56.672Zm-19.913-23.3V15.814a2.6,2.6,0,0,1,2.6-2.6H56.692a2.606,2.606,0,0,1,1.841.763L62.2,17.64V9.761H8.862V33.707a13.488,13.488,0,0,1,3.041-.35C12.04,33.357,12.175,33.363,12.311,33.368ZM8.862,60.022V73.435h3.449V60.361c-.136,0-.271.011-.408.011A13.488,13.488,0,0,1,8.862,60.022Zm20.225,3.192a.533.533,0,1,0,.533.533A.533.533,0,0,0,29.087,63.214Zm0,7.074a.534.534,0,1,0,.533.534A.534.534,0,0,0,29.087,70.288Zm0-14.149a.533.533,0,1,0,.533.533A.533.533,0,0,0,29.087,56.139ZM11.9,57.768a10.9,10.9,0,1,1,10.9-10.9A10.924,10.924,0,0,1,11.9,57.768Zm-.7-6.822,5.462-5.462a1.3,1.3,0,0,0-1.841-1.842l-4.541,4.541L8.12,46.016a1.3,1.3,0,1,0-1.842,1.841l3.088,3.088a1.3,1.3,0,0,0,1.841,0Z"/></svg>
