<svg xmlns="http://www.w3.org/2000/svg" xmlns:xlink="http://www.w3.org/1999/xlink" version="1.1" x="0px" y="0px" viewBox="0 0 64 80" style="enable-background:new 0 0 64 64;" xml:space="preserve"><style type="text/css">
	.st0{display:none;}
	.st1{display:inline;}
	.st2{fill:none;stroke:#B3B3B3;stroke-width:0.1;stroke-miterlimit:10;}
</style><g class="st0"><g class="st1"><rect x="2" y="2" class="st2" width="60" height="60"/><line class="st2" x1="32" y1="2" x2="32" y2="62"/><line class="st2" x1="62" y1="32" x2="2" y2="32"/><line class="st2" x1="2" y1="2" x2="62" y2="62"/><rect x="10" y="10" class="st2" width="44" height="44"/><line class="st2" x1="62" y1="2" x2="2" y2="62"/><line class="st2" x1="2" y1="32" x2="32" y2="2"/><line class="st2" x1="32" y1="2" x2="62" y2="32"/><line class="st2" x1="62" y1="32" x2="32" y2="62"/><line class="st2" x1="32" y1="62" x2="2" y2="32"/><circle class="st2" cx="32" cy="32" r="21"/></g></g><path fill="#d4af37" d="M62,32C62,15.5,48.5,2,32,2S2,15.5,2,32s13.5,30,30,30c2.5,0,5.1-0.3,7.5-0.9c1.1-0.3,1.7-1.4,1.4-2.4  c-0.3-1.1-1.4-1.7-2.4-1.4C36.4,57.7,34.2,58,32,58C17.7,58,6,46.3,6,32S17.7,6,32,6s26,11.7,26,26c0,4.5-1.2,8.8-3.3,12.7l-4.1-4.1  L46.4,56l15.4-4.1l-4.3-4.3C60.5,42.9,62,37.6,62,32z"/><path fill="#d4af37" d="M34,44c0.7,0,1.4-0.2,1.9-0.7l3.9-3.2c0.8-0.7,1.4-1.7,1.7-2.8l1.2-5.2c0.3-1.4,0.5-2.9,0.5-4.3V25C43,18.9,38,13.9,31.8,14  C25.7,14.1,21,19.3,21,25.4v2.4c0,1.5,0.2,2.9,0.5,4.3l1.2,5.2c0.2,1.1,0.8,2,1.7,2.8l3.9,3.2c0.5,0.4,1.2,0.7,1.9,0.7H34z"/><path fill="#d4af37" d="M30,51h5c0.6,0,1-0.4,1-1v-0.3c6.9-1.4,12-7.4,12-14.7v-1c1.1,0,2-0.9,2-2v-5c0-1.1-0.9-2-2-2h-1c0-8.3-6.7-15-15-15  c-8,0-14.4,6.2-14.9,14H16c-1.1,0-2,0.9-2,2v5c0,1.1,0.9,2,2,2h2c0.6,0,1-0.4,1-1v-3v-4c0-7.2,5.8-13,13-13s13,5.8,13,13v4v4  c0,0.6,0.4,1,1,1v1c0,6.2-4.3,11.3-10.1,12.7C35.8,47.3,35.5,47,35,47h-5c-0.6,0-1,0.4-1,1v2C29,50.6,29.4,51,30,51z"/></svg>
