<svg xmlns="http://www.w3.org/2000/svg" data-name="Layer 1" viewBox="0 0 128 160" x="0px" y="0px"><title>a</title><path fill="#d4af37" d="M68.673,99.56186A31.59506,31.59506,0,0,1,83.58646,72.7421C77.40913,70.446,65.804,66.8614,62.69494,65.23782c.01134,8.92406-2.96865,18.23988-9.33844,28.081l-1.1843-15.7445,2.66974-2.9596a23.01836,23.01836,0,0,0,1.52849-3.28792,1.969,1.969,0,0,0-1.85908-2.6222H42.86771a1.969,1.969,0,0,0-1.85908,2.6222,23.01964,23.01964,0,0,0,1.52848,3.28792l2.66974,2.9596-1.18428,15.7445c-6.36981-9.84116-9.34978-19.157-9.33846-28.081-3.76572,1.96778-19.99933,6.80911-23.94847,8.75876-4.051,1.99949-6.60532,6.87025-7.4907,11.15452L2.04481,102.141,1.25,123.98132a.06257.06257,0,0,0,.00227.01812,2.64191,2.64191,0,0,0,2.59728,2.05383h79.2229A31.58715,31.58715,0,0,1,68.673,99.56186Z"/><path fill="#d4af37" d="M28.75135,40.211a6.00718,6.00718,0,0,1,1.30005,1.09058,4.99552,4.99552,0,0,1,.75283,2.28757A26.30807,26.30807,0,0,0,36.1977,56.1175,17.4038,17.4038,0,0,0,47.98,62.55282c.2739.02408.54893.03192.82395.03865.2739-.00673.5478-.01457.82283-.03865A17.40264,17.40264,0,0,0,61.40911,56.1175a26.31337,26.31337,0,0,0,5.39347-12.5284,5.00208,5.00208,0,0,1,.75283-2.28757A6.00061,6.00061,0,0,1,68.85659,40.211a9.92751,9.92751,0,0,0,3.90353-6.726c.21174-1.77112-.596-4.09174-2.38334-4.08389.75224-4.35835,1.4188-8.87469.37584-13.17871A18.798,18.798,0,0,0,60.79016,4.08041,21.75181,21.75181,0,0,0,48.804,2.0886,21.75128,21.75128,0,0,0,36.81721,4.08041a18.7981,18.7981,0,0,0-9.96357,12.14191c-1.04183,4.304-.37584,8.82036.377,13.17871-1.78849-.00784-2.59507,2.31277-2.38336,4.08389A9.924,9.924,0,0,0,28.75135,40.211Z"/><path fill="#d4af37" d="M110.74079,90.62671h-.00053a3.91793,3.91793,0,0,0-5.52793.38416l-7.9359,9.12058-2.4804-1.9825a3.91836,3.91836,0,0,0-5.50808.61433l-.00053.00053a3.919,3.919,0,0,0,.61486,5.507l5.41794,4.33091a3.91822,3.91822,0,0,0,5.40292-.48932L111.125,96.15464A3.91881,3.91881,0,0,0,110.74079,90.62671Z"/><path fill="#d4af37" d="M100.25876,73.07061A26.49125,26.49125,0,1,0,126.75,99.56186,26.52137,26.52137,0,0,0,100.25876,73.07061Zm0,43.92483a17.43358,17.43358,0,1,1,17.43358-17.43358A17.45348,17.45348,0,0,1,100.25876,116.99544Z"/></svg>
